<svg xmlns="http://www.w3.org/2000/svg" width="1280" height="640" viewBox="0 0 1280 640" fill="none">
  <defs>
    <linearGradient id="bg" x1="70" y1="30" x2="1210" y2="610" gradientUnits="userSpaceOnUse">
      <stop stop-color="#052E16"/>
      <stop offset="1" stop-color="#0F172A"/>
    </linearGradient>
  </defs>
  <rect width="1280" height="640" fill="url(#bg)"/>
  <circle cx="1090" cy="110" r="180" fill="#4ADE80" fill-opacity="0.12"/>
  <circle cx="190" cy="550" r="220" fill="#14B8A6" fill-opacity="0.09"/>
  <rect x="56" y="56" width="1168" height="528" rx="32" fill="#111827" stroke="#334155"/>
  <rect x="96" y="96" width="190" height="34" rx="17" fill="#14532D" fill-opacity="0.35" stroke="#4ADE80"/>
  <text x="118" y="119" fill="#BBF7D0" font-family="Segoe UI, Arial, sans-serif" font-size="18" font-weight="700">Portfolio project</text>
  <text x="96" y="184" fill="#F8FAFC" font-family="Segoe UI, Arial, sans-serif" font-size="52" font-weight="700">Guided Network Diagnosis</text>
  <text x="96" y="226" fill="#94A3B8" font-family="Segoe UI, Arial, sans-serif" font-size="24">Triagem de rede, CFTV e acesso remoto com resumo tecnico</text>
  <rect x="96" y="280" width="482" height="228" rx="28" fill="#0F172A" stroke="#334155"/>
  <text x="128" y="324" fill="#F8FAFC" font-family="Segoe UI, Arial, sans-serif" font-size="24" font-weight="700">Choose a symptom</text>
  <rect x="128" y="352" width="418" height="42" rx="16" fill="#111827" stroke="#334155"/>
  <text x="154" y="380" fill="#E2E8F0" font-family="Segoe UI, Arial, sans-serif" font-size="20">Camera offline</text>
  <rect x="128" y="408" width="418" height="42" rx="16" fill="#111827" stroke="#334155"/>
  <text x="154" y="436" fill="#E2E8F0" font-family="Segoe UI, Arial, sans-serif" font-size="20">Wi-Fi without internet</text>
  <rect x="128" y="464" width="418" height="42" rx="16" fill="#111827" stroke="#334155"/>
  <text x="154" y="492" fill="#E2E8F0" font-family="Segoe UI, Arial, sans-serif" font-size="20">Remote access failed</text>
  <rect x="616" y="280" width="564" height="228" rx="28" fill="#0F172A" stroke="#334155"/>
  <text x="648" y="324" fill="#F8FAFC" font-family="Segoe UI, Arial, sans-serif" font-size="24" font-weight="700">Diagnosis output</text>
  <rect x="648" y="354" width="500" height="122" rx="20" fill="#111827" stroke="#334155"/>
  <text x="678" y="392" fill="#4ADE80" font-family="Segoe UI, Arial, sans-serif" font-size="20" font-weight="700">Likely cause</text>
  <text x="678" y="426" fill="#E2E8F0" font-family="Segoe UI, Arial, sans-serif" font-size="22">PoE power issue or cable fault</text>
  <text x="678" y="462" fill="#94A3B8" font-family="Segoe UI, Arial, sans-serif" font-size="18">Validate injector, switch port and network registration</text>
  <text x="96" y="554" fill="#E2E8F0" font-family="Segoe UI, Arial, sans-serif" font-size="22">Good fit for support, networking and troubleshooting roles.</text>
</svg>
